<svg width="256" height="167" viewBox="0 0 256 167" fill="none" xmlns="http://www.w3.org/2000/svg">
<path d="M88.7049 96.0251C88.4344 96.2962 88.0558 96.2962 87.7854 96.0251C82.8092 90.9283 78.9149 85.0725 76.2104 78.566C73.2897 71.6257 71.7752 64.2517 71.7752 56.6065C71.7752 48.9614 73.2897 41.5874 76.2104 34.6471C79.023 27.9238 83.0797 21.9053 88.2721 16.7001C93.4105 11.5491 99.4684 7.48252 106.175 4.60882C113.099 1.6809 120.455 0.16272 128.081 0.16272C135.654 0.16272 143.064 1.6809 149.987 4.60882C156.694 7.4283 162.698 11.4949 167.89 16.7001C173.029 21.851 177.085 27.9238 179.952 34.6471C182.873 41.5874 184.387 48.9614 184.387 56.6065C184.387 64.2517 182.873 71.6257 179.952 78.566C177.193 85.0725 173.299 90.9825 168.377 96.0251C168.106 96.2962 167.728 96.2962 167.457 96.0251L161.183 89.7897C160.913 89.5186 160.913 89.139 161.183 88.9221C169.729 80.0841 174.381 68.4809 174.273 56.1186C174.164 44.2442 169.459 32.7494 161.183 24.2367C152.259 15.0734 140.197 10.0309 127.432 10.2478C115.587 10.4104 104.174 15.1819 95.6822 23.4777C86.7577 32.2614 81.7815 44.0273 81.7815 56.6065C81.7815 68.8062 86.4331 80.2468 94.8709 88.9221C95.0873 89.1932 95.0873 89.5728 94.8709 89.7897L88.7049 96.0251Z" fill="#E05535"/>
<path d="M99.9011 83.8796C92.2747 76.0176 88.3803 65.4988 88.9212 54.4377C89.408 45.3829 93.0319 36.7617 99.1439 30.0926C106.554 21.9595 116.723 17.4592 127.648 17.3507C137.817 17.2423 147.715 21.1462 155.071 28.1949C162.914 35.6773 167.241 45.8166 167.241 56.6608C167.241 66.9085 163.347 76.614 156.207 83.988C155.937 84.2591 155.558 84.2591 155.288 83.988L149.121 77.8069C148.851 77.5358 148.851 77.1562 149.121 76.9393C154.693 71.1377 157.613 63.3841 157.181 55.1968C156.856 48.5277 154.206 42.1296 149.771 37.1955C143.821 30.5806 135.383 27.0562 126.513 27.5442C119.86 27.8695 113.477 30.5264 108.555 35.0267C102.389 40.6656 98.9275 48.4192 98.9275 56.715C98.9275 64.3059 101.794 71.463 107.041 76.9393C107.257 77.2104 107.257 77.59 107.041 77.8069L100.875 83.988C100.55 84.1507 100.117 84.1507 99.9011 83.8796Z" fill="#E68C4E"/>
<path d="M143.172 71.7884L137.006 65.6072C136.789 65.3903 136.735 65.0108 136.952 64.7397C139.115 62.354 140.251 59.2091 140.035 55.9017C139.71 49.829 134.788 44.9491 128.73 44.5695C121.753 44.1358 115.911 49.7205 115.911 56.6608C115.911 59.6971 116.993 62.5708 119.048 64.7939C119.265 65.065 119.265 65.4445 118.994 65.6614L112.828 71.8426C112.558 72.1137 112.179 72.1137 111.909 71.8426C107.852 67.5049 105.689 61.8117 105.905 55.7932C106.338 43.8104 116.019 34.5387 127.973 34.5387C140.143 34.5387 150.041 44.4611 150.041 56.6608C150.041 62.354 147.932 67.7218 144.037 71.8426C143.875 72.0053 143.442 72.0053 143.172 71.7884Z" fill="#F5CF63"/>
<path d="M0.378632 151.493C0.378632 148.782 0.973603 146.396 2.10946 144.227C3.24531 142.058 4.86796 140.378 6.97741 139.185C9.08685 137.992 11.4126 137.341 14.0089 137.341C17.3624 137.341 20.0668 138.154 22.2303 139.835C24.3938 141.516 25.8001 143.793 26.5033 146.667H20.6077C19.58 143.793 17.3624 142.384 14.0089 142.384C11.629 142.384 9.68182 143.251 8.16735 144.932C6.65288 146.667 5.94973 148.836 5.94973 151.493C5.94973 154.15 6.70696 156.373 8.16735 158.108C9.68182 159.843 11.629 160.71 14.0089 160.71C15.8479 160.71 17.3083 160.277 18.4441 159.517C19.58 158.758 20.3913 157.566 20.9322 156.156H26.5574C25.8001 159.192 24.3398 161.578 22.2844 163.204C20.229 164.831 17.4164 165.699 14.0089 165.699C11.3586 165.699 9.03276 165.102 6.92332 163.855C4.81387 162.608 3.24531 160.927 2.05537 158.758C0.973603 156.59 0.378632 154.204 0.378632 151.493Z" fill="#17294C"/>
<path d="M29.9109 165.156L40.4581 137.829H46.3537L56.9009 165.156H51.1135L48.8418 159.192H37.97L35.6983 165.156H29.9109ZM39.6468 154.421H47.1109L43.8656 145.854L43.3788 144.336L42.8921 145.854L39.6468 154.421Z" fill="#17294C"/>
<path d="M63.3374 165.156V137.829H69.5035L77.2922 155.451L77.8872 157.078L78.5362 155.451L86.3791 137.829H92.491V165.156H87.1363V147.86L86.3791 150.246L80.1589 165.156H75.6696L69.4494 150.246L68.6922 147.86V165.156H63.3374Z" fill="#17294C"/>
<path d="M101.091 165.156V137.829H109.853C112.774 137.829 115.1 138.643 116.831 140.269C118.562 141.896 119.427 144.01 119.427 146.667C119.427 149.27 118.562 151.384 116.831 153.011C115.1 154.638 112.774 155.451 109.853 155.451H106.446V165.156H101.091ZM106.446 150.463H109.853C111.151 150.463 112.125 150.137 112.882 149.487C113.64 148.836 113.964 147.914 113.964 146.667C113.964 145.474 113.585 144.498 112.882 143.848C112.179 143.197 111.151 142.872 109.853 142.872H106.446V150.463Z" fill="#17294C"/>
<path d="M120.292 165.156L130.84 137.829H136.735L147.282 165.156H141.495L139.223 159.192H128.352L126.08 165.156H120.292ZM130.028 154.421H137.493L134.247 145.854L133.76 144.336L133.274 145.854L130.028 154.421Z" fill="#17294C"/>
<path d="M154.53 165.156V137.829H159.831L171.027 154.421L172.163 156.264V137.829H177.518V165.156H172.163L160.967 148.673L159.939 146.884V165.211H154.53V165.156Z" fill="#17294C"/>
<path d="M186.118 165.156V137.829H191.473V165.156H186.118Z" fill="#17294C"/>
<path d="M198.775 151.493C198.775 149.487 199.099 147.589 199.802 145.854C200.505 144.119 201.479 142.601 202.723 141.354C203.967 140.106 205.482 139.13 207.212 138.426C208.943 137.721 210.89 137.341 212.892 137.341C215.596 137.341 218.03 137.938 220.194 139.185C222.357 140.432 224.034 142.058 225.224 144.227C226.414 146.396 227.009 148.782 227.009 151.493C227.009 154.204 226.414 156.644 225.224 158.813C224.034 160.981 222.357 162.662 220.194 163.909C218.03 165.156 215.596 165.753 212.892 165.753C210.187 165.753 207.699 165.156 205.59 163.909C203.48 162.662 201.749 160.981 200.559 158.813C199.37 156.59 198.775 154.204 198.775 151.493ZM204.346 151.493C204.346 154.204 205.157 156.373 206.726 158.108C208.294 159.843 210.349 160.71 212.946 160.71C215.488 160.71 217.543 159.843 219.112 158.108C220.68 156.373 221.492 154.204 221.492 151.493C221.492 148.836 220.68 146.667 219.112 144.932C217.543 143.197 215.488 142.384 212.946 142.384C210.404 142.384 208.294 143.251 206.726 144.932C205.103 146.613 204.346 148.836 204.346 151.493Z" fill="#17294C"/>
<path d="M232.742 165.156V137.829H238.043L249.239 154.421L250.375 156.264V137.829H255.73V165.156H250.375L239.179 148.673L238.151 146.884V165.211H232.742V165.156Z" fill="#17294C"/>
</svg>
