<svg width="121" height="62" viewBox="0 0 121 62" fill="none" xmlns="http://www.w3.org/2000/svg">
<mask id="mask0_2534_1245" style="mask-type:luminance" maskUnits="userSpaceOnUse" x="0" y="0" width="121" height="62">
<path d="M120.43 0H0V61.06H120.43V0Z" fill="white"/>
</mask>
<g mask="url(#mask0_2534_1245)">
<path d="M14.99 13.9C15.58 13.54 16.3 13.36 17.13 13.36C18.09 13.36 18.9 13.6 19.55 14.07C20.2 14.54 20.59 15.25 20.72 16.2H24.17C24.08 14.94 23.68 13.87 22.99 13C22.29 12.13 21.43 11.47 20.4 11.04C19.37 10.6 18.28 10.39 17.13 10.39C15.65 10.39 14.35 10.69 13.23 11.28C12.12 11.87 11.26 12.72 10.66 13.83C10.06 14.93 9.75 16.2 9.75 17.63C9.75 19.06 10.05 20.35 10.66 21.44C11.26 22.53 12.13 23.38 13.25 23.99C14.37 24.59 15.67 24.89 17.13 24.89C18.28 24.89 19.37 24.68 20.4 24.25C21.43 23.82 22.29 23.17 22.99 22.29C23.68 21.41 24.08 20.34 24.17 19.07H20.72C20.59 20 20.2 20.71 19.55 21.2C18.9 21.69 18.09 21.94 17.13 21.94C16.29 21.94 15.58 21.76 14.99 21.4C14.4 21.04 13.95 20.53 13.64 19.87C13.33 19.21 13.18 18.47 13.18 17.63C13.18 16.79 13.33 16.06 13.64 15.42C13.95 14.78 14.4 14.28 14.99 13.92" fill="black"/>
<path d="M39.54 16.62C39.54 15.28 39.27 14.16 38.73 13.24C38.19 12.32 37.43 11.62 36.45 11.13C35.47 10.64 34.31 10.39 32.97 10.39C31.73 10.39 30.62 10.61 29.66 11.04C28.69 11.48 27.93 12.1 27.36 12.9C26.79 13.71 26.47 14.67 26.4 15.78H29.68C29.75 14.85 30.07 14.17 30.61 13.73C31.16 13.3 31.9 13.08 32.85 13.08C33.96 13.08 34.77 13.32 35.29 13.8C35.8 14.28 36.07 15.04 36.11 16.08L31.15 16.58C29.35 16.77 28.06 17.21 27.27 17.92C26.48 18.63 26.09 19.57 26.09 20.76C26.09 21.8 26.44 22.75 27.15 23.6C27.85 24.45 29.13 24.88 30.99 24.88C32.85 24.88 34.19 24.49 35.12 23.72C35.96 23.03 36.55 22.15 36.89 21.08V22.73C36.89 23.32 37.05 23.78 37.38 24.11C37.71 24.43 38.16 24.6 38.76 24.6H41.57V21.65H39.54V16.61V16.62ZM35.56 20.18C35.19 20.79 34.67 21.27 34 21.61C33.33 21.95 32.57 22.12 31.72 22.12C31.01 22.12 30.46 21.97 30.06 21.66C29.66 21.35 29.46 20.88 29.46 20.23C29.46 19.77 29.62 19.41 29.93 19.16C30.25 18.91 30.75 18.75 31.43 18.67C31.58 18.63 31.69 18.61 31.76 18.61L36.1 18.08C36.1 18.86 35.91 19.56 35.54 20.17" fill="black"/>
<path d="M60.76 10.38C59.29 10.38 58.11 10.77 57.22 11.54C56.49 12.18 55.94 12.96 55.57 13.89C55.53 13.74 55.5 13.6 55.46 13.46C55.17 12.5 54.7 11.75 54.05 11.2C53.4 10.65 52.53 10.38 51.43 10.38C50.11 10.38 49.04 10.74 48.21 11.47C47.46 12.12 46.91 12.96 46.55 13.98V10.67H43.15V24.62H46.55V19.3C46.55 18 46.68 16.92 46.93 16.07C47.18 15.22 47.58 14.55 48.13 14.08C48.68 13.61 49.4 13.37 50.29 13.37C50.88 13.37 51.36 13.51 51.71 13.77C52.06 14.04 52.31 14.45 52.46 15.01C52.61 15.57 52.68 16.3 52.68 17.21V24.61H56.08V19.29C56.08 17.99 56.2 16.91 56.46 16.06C56.71 15.21 57.11 14.54 57.66 14.07C58.21 13.6 58.93 13.36 59.82 13.36C60.41 13.36 60.89 13.5 61.24 13.76C61.59 14.03 61.84 14.44 61.99 15C62.14 15.56 62.21 16.29 62.21 17.2V24.6H65.61V16.92C65.61 14.84 65.23 13.23 64.47 12.09C63.71 10.95 62.47 10.38 60.77 10.38" fill="black"/>
<path d="M81.15 11.32C80.18 10.7 79 10.39 77.63 10.39C76.05 10.39 74.78 10.75 73.82 11.48C73.01 12.08 72.38 12.87 71.93 13.82V10.67H68.53V30.07H71.93V21.49C72.36 22.42 72.98 23.19 73.78 23.79C74.76 24.52 76.04 24.89 77.64 24.89C79.01 24.89 80.19 24.57 81.16 23.94C82.13 23.31 82.87 22.45 83.37 21.37C83.87 20.28 84.12 19.05 84.12 17.65C84.12 16.25 83.87 15.01 83.37 13.91C82.87 12.81 82.13 11.94 81.16 11.32M80.18 20.04C79.82 20.67 79.32 21.14 78.68 21.46C78.04 21.78 77.28 21.93 76.41 21.93C75.54 21.93 74.77 21.77 74.11 21.46C73.45 21.14 72.93 20.67 72.55 20.03C72.17 19.39 71.98 18.6 71.98 17.65C71.98 16.7 72.17 15.91 72.55 15.27C72.93 14.63 73.45 14.15 74.11 13.84C74.77 13.52 75.53 13.37 76.41 13.37C77.29 13.37 78.04 13.53 78.68 13.84C79.32 14.16 79.82 14.63 80.18 15.26C80.54 15.89 80.72 16.69 80.72 17.65C80.72 18.61 80.54 19.41 80.18 20.04Z" fill="black"/>
<path d="M2.14001 0H10.23V2.98001H2.98V10.66H0V2.17C0 1.45 0.180006 0.900009 0.530006 0.540009C0.880006 0.180009 1.42001 0 2.14001 0Z" fill="black"/>
<path d="M28.16 36.1801C26.69 36.1801 25.51 36.5701 24.62 37.3401C23.89 37.9801 23.34 38.76 22.97 39.69C22.93 39.54 22.9 39.4001 22.85 39.2601C22.56 38.3001 22.09 37.55 21.44 37C20.79 36.45 19.92 36.1801 18.82 36.1801C17.5 36.1801 16.43 36.5401 15.6 37.2701C14.85 37.9201 14.3 38.76 13.94 39.78V36.47H10.54V50.42H13.94V45.1001C13.94 43.8001 14.07 42.7201 14.32 41.8701C14.57 41.0201 14.97 40.3501 15.52 39.8801C16.07 39.4101 16.79 39.17 17.68 39.17C18.27 39.17 18.75 39.3101 19.1 39.5701C19.45 39.8401 19.7 40.25 19.85 40.81C20 41.37 20.07 42.1001 20.07 43.0101V50.41H23.47V45.0901C23.47 43.7901 23.59 42.71 23.85 41.86C24.1 41.01 24.5 40.3401 25.05 39.8701C25.6 39.4001 26.32 39.16 27.21 39.16C27.8 39.16 28.28 39.3 28.63 39.56C28.98 39.83 29.23 40.24 29.38 40.8C29.53 41.36 29.6 42.09 29.6 43V50.4001H33V42.72C33 40.64 32.62 39.03 31.86 37.89C31.1 36.75 29.86 36.1801 28.16 36.1801Z" fill="black"/>
<path d="M42.13 38.3699C42.13 37.7199 41.96 37.2399 41.63 36.9199C41.3 36.5999 40.82 36.45 40.21 36.45H35.87V39.4299H38.99V47.45H35.09V50.3999H46.06V47.45H42.14V38.3699H42.13Z" fill="black"/>
<path d="M57.19 36.1801C55.65 36.1801 54.38 36.5601 53.38 37.3201C52.48 38.0001 51.86 38.9101 51.52 40.0401V36.4601H48.12V50.41H51.52V44.8701C51.52 43.6101 51.7 42.5501 52.08 41.7001C52.45 40.8501 52.97 40.2101 53.62 39.7901C54.28 39.3701 55.07 39.16 56 39.16C57.13 39.16 57.94 39.4501 58.44 40.0201C58.93 40.6001 59.18 41.56 59.18 42.92V50.41H62.6V42.4501C62.6 40.4401 62.13 38.9 61.18 37.81C60.23 36.73 58.91 36.1801 57.2 36.1801" fill="black"/>
<path d="M76.97 39.5499C76.53 38.6499 75.92 37.8999 75.15 37.2899C74.19 36.5499 72.91 36.1799 71.29 36.1799C69.92 36.1799 68.74 36.4899 67.77 37.1099C66.8 37.7299 66.06 38.5899 65.56 39.6699C65.06 40.7499 64.81 41.9999 64.81 43.4099C64.81 44.8199 65.06 46.0499 65.56 47.1399C66.06 48.2299 66.8 49.0999 67.77 49.7299C68.74 50.3599 69.92 50.6799 71.29 50.6799C72.87 50.6799 74.14 50.32 75.12 49.59C75.91 49 76.53 48.2399 76.97 47.3199V50.3999H80.39V29.9399H76.97V39.5499ZM76.38 45.7799C76 46.4299 75.47 46.9199 74.81 47.2399C74.14 47.5699 73.39 47.7299 72.55 47.7299C71.71 47.7299 70.92 47.5599 70.27 47.2299C69.62 46.8899 69.12 46.4099 68.77 45.7699C68.42 45.1299 68.24 44.3499 68.24 43.4199C68.24 42.4899 68.42 41.6899 68.77 41.0499C69.12 40.4199 69.62 39.9499 70.27 39.6299C70.92 39.3099 71.68 39.1599 72.55 39.1599C73.42 39.1599 74.14 39.3199 74.81 39.6499C75.48 39.9799 76 40.4499 76.38 41.0799C76.76 41.7099 76.95 42.4899 76.95 43.4199C76.95 44.3499 76.76 45.1399 76.38 45.7899" fill="black"/>
<path d="M92.34 47.3801C91.72 47.8201 90.92 48.03 89.93 48.03C88.72 48.03 87.8 47.6501 87.15 46.8701C86.56 46.1701 86.24 45.2601 86.17 44.1301H96.93V43.0401C96.93 40.8901 96.29 39.2001 95.01 37.9901C93.73 36.7701 91.98 36.17 89.78 36.17C88.41 36.17 87.19 36.4501 86.13 37.0201C85.07 37.5901 84.25 38.4 83.67 39.47C83.08 40.54 82.79 41.81 82.79 43.3C82.79 44.79 83.07 46 83.64 47.11C84.21 48.22 85.03 49.1001 86.1 49.7301C87.18 50.3601 88.47 50.6801 89.97 50.6801C92.01 50.6801 93.62 50.2001 94.79 49.2301C95.96 48.2701 96.68 47.02 96.96 45.5H93.59C93.39 46.32 92.97 46.9401 92.35 47.3801M87.9 39.22C88.46 38.91 89.11 38.7601 89.85 38.7601C91 38.7601 91.91 39.09 92.59 39.75C93.18 40.33 93.52 41.1001 93.59 42.0701H86.17C86.22 41.4801 86.37 40.9701 86.61 40.5201C86.92 39.9501 87.35 39.5201 87.9 39.2101" fill="black"/>
<path d="M101.71 36.45C100.99 36.45 100.44 36.6299 100.08 36.9799C99.72 37.3299 99.54 37.87 99.54 38.59V50.3899H102.96V39.4199H110.2V36.4399H101.71V36.45Z" fill="black"/>
<path d="M42.04 30.66H38.63V33.85L42.04 33.83V30.66Z" fill="black"/>
<path d="M118.29 61.06H110.2V58.08H117.45V50.4H120.43V58.89C120.43 59.61 120.25 60.16 119.9 60.52C119.55 60.88 119.01 61.06 118.29 61.06Z" fill="black"/>
</g>
</svg>
