<svg width="211" height="57" viewBox="0 0 211 57" fill="none" xmlns="http://www.w3.org/2000/svg">
<mask id="mask0_2534_1327" style="mask-type:luminance" maskUnits="userSpaceOnUse" x="0" y="0" width="211" height="57">
<path d="M210.24 0H0V56.29H210.24V0Z" fill="white"/>
</mask>
<g mask="url(#mask0_2534_1327)">
<path d="M14.6 56.3C11.91 56.3 10.96 54.7701 10.96 52.3801V47.8201H13.12V52.3801C13.12 53.6301 13.51 54.4301 14.6 54.4301C15.59 54.4301 15.9 53.6301 15.9 52.3801V47.8201H18.06V52.3801C18.06 54.6201 17.2 56.3 14.6 56.3Z" fill="black"/>
<path d="M28.27 47.8201L29.85 51.5401C30.25 52.4901 30.57 53.2301 30.7 53.5901C30.65 52.8501 30.66 51.9301 30.66 50.8901V47.8201H32.74V56.1001H29.81L28.65 53.3C28.07 51.91 27.48 50.85 27.33 50.33C27.38 51.05 27.35 52.37 27.35 53.33V56.0901H25.27V47.8101H28.27V47.8201Z" fill="black"/>
<path d="M40.01 47.8201H43.31C45.48 47.8201 46.64 49.0001 46.64 50.5201C46.64 52.1501 45.18 53.4401 43.33 53.4401H42.16V56.1001H40V47.8201H40.01ZM44.51 50.5701C44.51 49.7601 43.84 49.6001 43.2 49.6001H42.17V51.6801H43.22C43.86 51.6801 44.51 51.39 44.51 50.58" fill="black"/>
<path d="M51.97 56.1001L54.88 47.8201H57.58L60.46 56.1001H58.15L57.58 54.2801H54.8L54.23 56.1001H51.97ZM57.06 52.6001L56.2 49.83H56.18L55.32 52.6001H57.06Z" fill="black"/>
<path d="M70.38 56.25C68.13 56.25 66.19 54.74 66.19 51.97C66.19 49.2 68.16 47.67 70.42 47.67C72.49 47.67 73.93 48.66 74.46 50.63H72.35C71.94 49.75 71.18 49.5 70.42 49.5C69.41 49.5 68.34 50.4 68.34 51.97C68.34 53.54 69.42 54.42 70.42 54.42C71.42 54.42 71.97 54.08 72.31 53.32H74.43C73.9 55.34 72.36 56.25 70.37 56.25" fill="black"/>
<path d="M81.29 56.1001V47.8201H83.45V51.0201L86.19 47.8201H88.7L85.62 51.3101L88.68 56.1001H86.23L84.26 52.83L83.45 53.7201V56.1001H81.29Z" fill="black"/>
<path d="M103.76 47.8201H107.06C109.23 47.8201 110.39 49.0001 110.39 50.5201C110.39 52.1501 108.93 53.4401 107.08 53.4401H105.91V56.1001H103.75V47.8201H103.76ZM108.26 50.5701C108.26 49.7601 107.59 49.6001 106.95 49.6001H105.92V51.6801H106.97C107.61 51.6801 108.26 51.39 108.26 50.58" fill="black"/>
<path d="M125.49 51.96C125.49 54.26 123.92 56.3 121.08 56.3C118.24 56.3 116.67 54.26 116.67 51.96C116.67 49.66 118.24 47.62 121.08 47.62C123.92 47.62 125.49 49.66 125.49 51.96ZM121.09 54.47C122.44 54.47 123.34 53.45 123.34 51.96C123.34 50.47 122.44 49.45 121.09 49.45C119.74 49.45 118.84 50.47 118.84 51.96C118.84 53.45 119.73 54.47 121.09 54.47Z" fill="black"/>
<path d="M135.38 54.52C136.19 54.52 136.46 54.24 136.46 53.77C136.46 53.16 135.9 52.94 134.85 52.61C133.48 52.19 132.15 51.65 132.16 49.88C132.17 48.31 133.83 47.62 135.36 47.62C137.01 47.62 138.36 48.32 138.61 50.39H136.45C136.3 49.67 135.93 49.38 135.28 49.38C134.7 49.38 134.29 49.6 134.29 50.04C134.29 50.53 134.77 50.79 135.8 51.11C137.24 51.55 138.58 52.04 138.58 53.81C138.58 55.58 136.99 56.29 135.38 56.29C133.56 56.29 132.07 55.34 131.76 53.29H134.01C134.09 54.01 134.66 54.52 135.38 54.52Z" fill="black"/>
<path d="M148.54 54.52C149.35 54.52 149.62 54.24 149.62 53.77C149.62 53.16 149.06 52.94 148.01 52.61C146.64 52.19 145.31 51.65 145.32 49.88C145.33 48.31 146.99 47.62 148.52 47.62C150.17 47.62 151.52 48.32 151.77 50.39H149.61C149.46 49.67 149.09 49.38 148.44 49.38C147.86 49.38 147.45 49.6 147.45 50.04C147.45 50.53 147.93 50.79 148.96 51.11C150.4 51.55 151.74 52.04 151.74 53.81C151.74 55.58 150.15 56.29 148.54 56.29C146.72 56.29 145.23 55.34 144.92 53.29H147.17C147.25 54.01 147.82 54.52 148.54 54.52Z" fill="black"/>
<path d="M160.8 47.8201H158.64V56.1001H160.8V47.8201Z" fill="black"/>
<path d="M168.04 47.8201H170.86C172.9 47.8201 174.18 48.3901 174.18 49.9701C174.18 51.1101 173.57 51.6101 172.8 51.8101C173.59 52.0001 174.41 52.4701 174.41 53.7201C174.41 55.6701 172.95 56.1001 170.83 56.1001H168.05V47.8201H168.04ZM170.54 51.08C171.58 51.08 172.06 51.0001 172.06 50.2801C172.06 49.5601 171.57 49.55 170.74 49.55H170.21V51.08H170.55H170.54ZM170.36 54.36C171.56 54.36 172.26 54.4101 172.26 53.5101C172.26 52.7601 171.68 52.7301 170.8 52.7301H170.2V54.3501H170.36V54.36Z" fill="black"/>
<path d="M183.45 47.8201V54.2701H187.03V56.1001H181.29V47.8201H183.45Z" fill="black"/>
<path d="M199.24 49.6501H195.74V51.0701H198.99V52.8401H195.74V54.2701H199.27V56.1001H193.58V47.8201H199.24V49.6501Z" fill="black"/>
<path d="M16.05 14.9C16.69 14.51 17.45 14.32 18.35 14.32C19.38 14.32 20.25 14.57 20.94 15.08C21.64 15.59 22.05 16.35 22.19 17.36H25.89C25.79 16.01 25.37 14.87 24.62 13.93C23.87 13 22.95 12.29 21.85 11.83C20.75 11.36 19.58 11.13 18.35 11.13C16.76 11.13 15.37 11.45 14.17 12.08C12.98 12.72 12.06 13.63 11.41 14.81C10.76 15.99 10.44 17.35 10.44 18.88C10.44 20.41 10.76 21.79 11.41 22.97C12.06 24.14 12.98 25.05 14.18 25.7C15.38 26.35 16.77 26.67 18.34 26.67C19.57 26.67 20.74 26.44 21.84 25.98C22.94 25.52 23.87 24.82 24.61 23.88C25.35 22.94 25.78 21.79 25.88 20.44H22.18C22.04 21.43 21.62 22.19 20.93 22.72C20.23 23.25 19.37 23.51 18.34 23.51C17.45 23.51 16.68 23.32 16.04 22.93C15.4 22.54 14.92 22 14.59 21.29C14.26 20.58 14.1 19.78 14.1 18.89C14.1 18 14.26 17.21 14.59 16.52C14.92 15.83 15.4 15.3 16.04 14.91" fill="black"/>
<path d="M42.35 17.81C42.35 16.38 42.06 15.17 41.49 14.19C40.91 13.21 40.1 12.45 39.04 11.92C37.99 11.39 36.74 11.13 35.31 11.13C33.98 11.13 32.79 11.36 31.76 11.83C30.73 12.3 29.91 12.96 29.3 13.83C28.69 14.69 28.35 15.72 28.27 16.92H31.79C31.87 15.93 32.2 15.2 32.79 14.73C33.38 14.26 34.18 14.03 35.19 14.03C36.38 14.03 37.25 14.29 37.8 14.81C38.35 15.33 38.64 16.14 38.68 17.26L33.37 17.8C31.44 18 30.05 18.48 29.21 19.23C28.37 19.99 27.94 21 27.94 22.27C27.94 23.38 28.32 24.4 29.07 25.31C29.83 26.23 31.2 26.68 33.18 26.68C35.16 26.68 36.6 26.27 37.61 25.44C38.51 24.7 39.14 23.76 39.5 22.61V24.38C39.5 25.02 39.67 25.51 40.02 25.86C40.37 26.21 40.86 26.38 41.5 26.38H44.51V23.22H42.33V17.82L42.35 17.81ZM38.09 21.62C37.69 22.28 37.14 22.79 36.42 23.16C35.7 23.53 34.89 23.71 33.97 23.71C33.21 23.71 32.62 23.54 32.19 23.22C31.76 22.89 31.55 22.38 31.55 21.68C31.55 21.18 31.72 20.8 32.06 20.53C32.4 20.26 32.94 20.09 33.67 20.01C33.83 19.97 33.95 19.95 34.03 19.95L38.68 19.38C38.68 20.21 38.48 20.96 38.08 21.62" fill="black"/>
<path d="M65.09 11.13C63.52 11.13 62.26 11.54 61.3 12.37C60.51 13.05 59.92 13.89 59.53 14.89C59.49 14.73 59.45 14.58 59.41 14.43C59.1 13.41 58.6 12.6 57.9 12.01C57.2 11.42 56.27 11.13 55.1 11.13C53.69 11.13 52.54 11.52 51.65 12.29C50.85 12.99 50.26 13.89 49.88 14.97V11.42H46.24V26.36H49.88V20.66C49.88 19.27 50.01 18.11 50.28 17.2C50.55 16.29 50.98 15.58 51.56 15.07C52.15 14.56 52.92 14.31 53.87 14.31C54.51 14.31 55.01 14.45 55.39 14.74C55.77 15.03 56.04 15.47 56.19 16.07C56.35 16.67 56.43 17.45 56.43 18.43V26.36H60.07V20.66C60.07 19.27 60.2 18.11 60.47 17.2C60.74 16.29 61.17 15.58 61.75 15.07C62.34 14.56 63.11 14.31 64.06 14.31C64.7 14.31 65.2 14.45 65.58 14.74C65.96 15.03 66.23 15.47 66.38 16.07C66.54 16.67 66.62 17.45 66.62 18.43V26.36H70.26V18.13C70.26 15.9 69.85 14.18 69.04 12.96C68.22 11.74 66.9 11.13 65.07 11.13" fill="black"/>
<path d="M86.93 12.13C85.89 11.46 84.63 11.13 83.16 11.13C81.47 11.13 80.11 11.52 79.07 12.29C78.21 12.94 77.53 13.78 77.04 14.8V11.42H73.4V32.21H77.04V23.02C77.5 24.01 78.16 24.84 79.02 25.49C80.06 26.28 81.44 26.67 83.15 26.67C84.62 26.67 85.88 26.33 86.92 25.66C87.96 24.98 88.75 24.06 89.29 22.9C89.83 21.74 90.1 20.41 90.1 18.92C90.1 17.43 89.83 16.09 89.29 14.91C88.75 13.73 87.96 12.8 86.92 12.14M85.88 21.48C85.49 22.16 84.96 22.66 84.27 23C83.58 23.34 82.77 23.51 81.84 23.51C80.91 23.51 80.08 23.34 79.38 23C78.67 22.66 78.12 22.15 77.71 21.46C77.3 20.77 77.1 19.92 77.1 18.91C77.1 17.9 77.3 17.05 77.71 16.36C78.12 15.67 78.67 15.16 79.38 14.82C80.08 14.48 80.91 14.31 81.84 14.31C82.77 14.31 83.58 14.48 84.27 14.82C84.96 15.16 85.49 15.67 85.88 16.34C86.27 17.01 86.46 17.87 86.46 18.9C86.46 19.93 86.27 20.79 85.88 21.47" fill="black"/>
<path d="M111.39 11.13C109.82 11.13 108.56 11.54 107.6 12.37C106.81 13.05 106.22 13.89 105.83 14.89C105.79 14.73 105.75 14.58 105.71 14.43C105.4 13.41 104.9 12.6 104.2 12.01C103.5 11.42 102.57 11.13 101.4 11.13C99.99 11.13 98.84 11.52 97.95 12.29C97.15 12.99 96.56 13.89 96.18 14.97V11.42H92.54V26.36H96.18V20.66C96.18 19.27 96.31 18.11 96.58 17.2C96.85 16.29 97.27 15.58 97.86 15.07C98.45 14.56 99.22 14.31 100.17 14.31C100.81 14.31 101.31 14.45 101.69 14.74C102.07 15.03 102.34 15.47 102.49 16.07C102.65 16.67 102.73 17.45 102.73 18.43V26.36H106.37V20.66C106.37 19.27 106.5 18.11 106.77 17.2C107.04 16.29 107.47 15.58 108.05 15.07C108.64 14.56 109.41 14.31 110.36 14.31C111 14.31 111.5 14.45 111.88 14.74C112.26 15.03 112.53 15.47 112.68 16.07C112.84 16.67 112.92 17.45 112.92 18.43V26.36H116.56V18.13C116.56 15.9 116.15 14.18 115.34 12.96C114.52 11.74 113.2 11.13 111.37 11.13" fill="black"/>
<path d="M126.35 13.48C126.35 12.78 126.17 12.27 125.81 11.93C125.45 11.59 124.95 11.42 124.29 11.42H119.64V14.61H122.98V23.2H118.81V26.36H130.56V23.2H126.35V13.48Z" fill="black"/>
<path d="M142.49 11.13C140.84 11.13 139.48 11.54 138.4 12.35C137.44 13.08 136.77 14.05 136.4 15.26V11.42H132.76V26.36H136.4V20.42C136.4 19.07 136.6 17.94 137 17.02C137.4 16.1 137.95 15.42 138.66 14.98C139.36 14.53 140.21 14.31 141.21 14.31C142.42 14.31 143.29 14.62 143.82 15.23C144.35 15.85 144.61 16.88 144.61 18.33V26.35H148.28V17.82C148.28 15.67 147.77 14.02 146.76 12.85C145.75 11.69 144.33 11.11 142.5 11.11" fill="black"/>
<path d="M163.68 14.7399C163.21 13.7799 162.56 12.9699 161.73 12.3199C160.71 11.5299 159.33 11.1299 157.6 11.1299C156.13 11.1299 154.87 11.4599 153.83 12.1299C152.79 12.7999 152 13.7099 151.46 14.8699C150.92 16.0299 150.66 17.3699 150.66 18.8799C150.66 20.3899 150.93 21.6999 151.46 22.8799C152 24.0499 152.79 24.9799 153.83 25.6499C154.87 26.3299 156.13 26.6599 157.6 26.6599C159.29 26.6599 160.66 26.2699 161.7 25.4999C162.55 24.8699 163.21 24.0499 163.68 23.0699V26.3699H167.35V4.44995H163.68V14.7399ZM163.04 21.42C162.63 22.12 162.07 22.6399 161.36 22.9899C160.64 23.3399 159.84 23.5099 158.95 23.5099C158.06 23.5099 157.2 23.3299 156.5 22.9699C155.8 22.6099 155.27 22.0899 154.89 21.3999C154.51 20.7099 154.32 19.8699 154.32 18.8799C154.32 17.8899 154.51 17.0199 154.89 16.3399C155.27 15.6699 155.8 15.1599 156.5 14.8199C157.2 14.4799 158.01 14.3099 158.95 14.3099C159.89 14.3099 160.65 14.4799 161.36 14.8299C162.08 15.1799 162.64 15.6899 163.04 16.3699C163.45 17.0499 163.65 17.8799 163.65 18.8799C163.65 19.8799 163.44 20.72 163.04 21.42Z" fill="black"/>
<path d="M180.15 23.13C179.48 23.6 178.63 23.83 177.57 23.83C176.28 23.83 175.28 23.42 174.59 22.59C173.96 21.84 173.61 20.86 173.53 19.65H185.05V18.49C185.05 16.18 184.36 14.38 182.99 13.08C181.62 11.78 179.75 11.13 177.38 11.13C175.91 11.13 174.61 11.43 173.47 12.04C172.34 12.65 171.46 13.52 170.83 14.66C170.2 15.8 169.89 17.17 169.89 18.76C169.89 20.35 170.19 21.65 170.8 22.85C171.41 24.04 172.29 24.98 173.44 25.65C174.59 26.33 175.97 26.66 177.58 26.66C179.77 26.66 181.49 26.14 182.74 25.11C183.99 24.08 184.77 22.74 185.07 21.11H181.46C181.24 21.99 180.8 22.66 180.13 23.12M175.39 14.39C175.99 14.06 176.68 13.9 177.48 13.9C178.71 13.9 179.69 14.25 180.42 14.96C181.06 15.58 181.41 16.41 181.49 17.45H173.54C173.6 16.82 173.75 16.27 174.01 15.8C174.34 15.19 174.8 14.73 175.4 14.4" fill="black"/>
<path d="M190.18 11.4299C189.4 11.4299 188.82 11.6199 188.44 11.9999C188.05 12.3799 187.86 12.9499 187.86 13.7299V26.3699H191.53V14.6199H199.28V11.4299H190.18Z" fill="black"/>
<path d="M126.26 5.21997H122.6V8.63998L126.26 8.60995V5.21997Z" fill="black"/>
<path d="M2.28999 0H10.95V3.19H3.17999V11.42H-0.0100098V2.32001C-0.0100098 1.55001 0.17999 0.959987 0.55999 0.579987C0.93999 0.189987 1.50999 0 2.28999 0Z" fill="#9264CA"/>
<path d="M207.94 37.79H199.28V34.6H207.05V26.37H210.24V35.47C210.24 36.24 210.05 36.83 209.67 37.21C209.29 37.6 208.72 37.79 207.94 37.79Z" fill="#9264CA"/>
</g>
</svg>
