<svg width="75" height="46" viewBox="0 0 75 46" fill="none" xmlns="http://www.w3.org/2000/svg">
<mask id="mask0_2534_1319" style="mask-type:luminance" maskUnits="userSpaceOnUse" x="0" y="0" width="75" height="46">
<path d="M74.88 0H0V45.65H74.88V0Z" fill="white"/>
</mask>
<g mask="url(#mask0_2534_1319)">
<path d="M18.43 17.1C19.16 16.65 20.04 16.43 21.07 16.43C22.26 16.43 23.25 16.72 24.05 17.3C24.85 17.88 25.33 18.76 25.49 19.92H29.74C29.63 18.37 29.14 17.06 28.28 15.98C27.42 14.91 26.36 14.1 25.09 13.56C23.82 13.02 22.48 12.76 21.07 12.76C19.24 12.76 17.64 13.12 16.27 13.85C14.9 14.58 13.84 15.63 13.1 16.98C12.36 18.34 11.99 19.9 11.99 21.66C11.99 23.42 12.36 25 13.1 26.35C13.84 27.7 14.9 28.74 16.29 29.48C17.67 30.22 19.26 30.59 21.07 30.59C22.49 30.59 23.83 30.33 25.09 29.8C26.36 29.28 27.42 28.47 28.28 27.39C29.14 26.31 29.62 24.99 29.74 23.43H25.49C25.33 24.57 24.85 25.45 24.05 26.05C23.25 26.65 22.26 26.96 21.07 26.96C20.04 26.96 19.16 26.74 18.43 26.29C17.7 25.84 17.15 25.22 16.77 24.41C16.39 23.6 16.2 22.68 16.2 21.65C16.2 20.62 16.39 19.72 16.77 18.93C17.15 18.14 17.7 17.53 18.43 17.08" fill="black"/>
<path d="M2.64001 -3.05176e-05H12.59V3.65997H3.67001V13.11H0.0100098V2.65997C0.0100098 1.76997 0.230011 1.09997 0.660011 0.659973C1.09001 0.209973 1.76001 -0.0100098 2.65001 -0.0100098" fill="#9264CA"/>
<path d="M53.57 12.77C51.77 12.77 50.32 13.24 49.22 14.19C48.32 14.97 47.64 15.94 47.19 17.08C47.15 16.9 47.1 16.72 47.05 16.55C46.7 15.37 46.12 14.45 45.32 13.78C44.52 13.11 43.45 12.77 42.1 12.77C40.48 12.77 39.16 13.22 38.14 14.11C37.22 14.91 36.55 15.94 36.1 17.19V13.11H31.92V30.27H36.1V23.73C36.1 22.13 36.25 20.81 36.56 19.76C36.87 18.71 37.36 17.89 38.03 17.31C38.7 16.73 39.59 16.44 40.68 16.44C41.41 16.44 41.99 16.61 42.43 16.94C42.86 17.27 43.17 17.78 43.35 18.46C43.53 19.14 43.62 20.05 43.62 21.17V30.28H47.8V23.74C47.8 22.14 47.95 20.82 48.26 19.77C48.57 18.72 49.06 17.9 49.73 17.32C50.4 16.74 51.29 16.45 52.38 16.45C53.11 16.45 53.69 16.62 54.13 16.95C54.56 17.28 54.87 17.79 55.06 18.47C55.24 19.15 55.33 20.06 55.33 21.18V30.29H59.51V20.84C59.51 18.28 59.04 16.3 58.11 14.9C57.17 13.5 55.65 12.79 53.56 12.79" fill="black"/>
<path d="M72.24 45.6499H62.29V41.9799H71.21V32.5299H74.87V42.9799C74.87 43.8699 74.65 44.5399 74.22 44.9799C73.79 45.4299 73.12 45.6499 72.23 45.6499" fill="#9264CA"/>
</g>
</svg>
