<svg width="180" height="60" viewBox="0 0 180 60" fill="none" xmlns="http://www.w3.org/2000/svg">
<mask id="mask0_2534_1455" style="mask-type:luminance" maskUnits="userSpaceOnUse" x="0" y="0" width="180" height="60">
<path d="M179.61 0H0V59.61H179.61V0Z" fill="white"/>
</mask>
<g mask="url(#mask0_2534_1455)">
<path d="M3.47 59.61C0.900001 59.61 0 58.15 0 55.87V51.52H2.06V55.87C2.06 57.06 2.44 57.83 3.48 57.83C4.42 57.83 4.72 57.07 4.72 55.87V51.52H6.78V55.87C6.78 58 5.96 59.61 3.48 59.61" fill="white"/>
<path d="M16.52 51.52L18.03 55.07C18.42 55.98 18.72 56.69 18.84 57.03C18.8 56.32 18.81 55.45 18.81 54.45V51.52H20.79V59.42H17.99L16.88 56.75C16.33 55.42 15.76 54.42 15.62 53.92C15.66 54.61 15.64 55.87 15.64 56.79V59.42H13.66V51.52H16.52Z" fill="white"/>
<path d="M27.71 51.52H30.86C32.93 51.52 34.03 52.65 34.03 54.1C34.03 55.66 32.64 56.89 30.88 56.89H29.76V59.42H27.7V51.52H27.71ZM32.01 54.14C32.01 53.37 31.37 53.21 30.76 53.21H29.78V55.19H30.79C31.4 55.19 32.02 54.91 32.02 54.14" fill="white"/>
<path d="M39.11 59.42L41.89 51.52H44.47L47.21 59.42H45.01L44.47 57.6801H41.82L41.28 59.42H39.12H39.11ZM43.97 56.08L43.15 53.44H43.13L42.31 56.08H43.97Z" fill="white"/>
<path d="M56.6701 59.5601C54.5201 59.5601 52.6801 58.1202 52.6801 55.4802C52.6801 52.8402 54.5601 51.3801 56.7201 51.3801C58.6901 51.3801 60.0701 52.3201 60.5701 54.2001H58.5601C58.1701 53.3601 57.4401 53.1301 56.7201 53.1301C55.7601 53.1301 54.7401 53.9902 54.7401 55.4902C54.7401 56.9902 55.7701 57.8201 56.7201 57.8201C57.6701 57.8201 58.2001 57.5001 58.5201 56.7701H60.5501C60.0401 58.7001 58.5801 59.5701 56.6801 59.5701" fill="white"/>
<path d="M67.08 59.42V51.52H69.14V54.57L71.75 51.52H74.15L71.21 54.85L74.13 59.42H71.79L69.91 56.3L69.14 57.15V59.42H67.08Z" fill="white"/>
<path d="M88.51 51.52H91.66C93.73 51.52 94.83 52.65 94.83 54.1C94.83 55.66 93.44 56.89 91.68 56.89H90.56V59.42H88.5V51.52H88.51ZM92.8 54.14C92.8 53.37 92.16 53.21 91.55 53.21H90.57V55.19H91.58C92.19 55.19 92.81 54.91 92.81 54.14" fill="white"/>
<path d="M109.24 55.4701C109.24 57.6601 107.75 59.6101 105.04 59.6101C102.33 59.6101 100.84 57.6601 100.84 55.4701C100.84 53.2801 102.33 51.3301 105.04 51.3301C107.75 51.3301 109.24 53.2801 109.24 55.4701ZM105.04 57.8601C106.32 57.8601 107.19 56.8901 107.19 55.4701C107.19 54.0501 106.33 53.0801 105.04 53.0801C103.75 53.0801 102.89 54.0501 102.89 55.4701C102.89 56.8901 103.74 57.8601 105.04 57.8601Z" fill="white"/>
<path d="M118.67 57.9101C119.44 57.9101 119.7 57.6501 119.7 57.1901C119.7 56.6001 119.17 56.3901 118.16 56.0801C116.85 55.6801 115.58 55.1601 115.59 53.4801C115.6 51.9901 117.18 51.3201 118.64 51.3201C120.21 51.3201 121.5 51.9801 121.74 53.9601H119.68C119.54 53.2701 119.18 53.0001 118.56 53.0001C118.01 53.0001 117.62 53.2101 117.62 53.6301C117.62 54.1001 118.07 54.3501 119.06 54.6501C120.43 55.0701 121.71 55.5301 121.71 57.2301C121.71 58.9301 120.2 59.6001 118.66 59.6001C116.92 59.6001 115.51 58.6901 115.21 56.7401H117.36C117.44 57.4201 117.98 57.9101 118.66 57.9101" fill="white"/>
<path d="M131.22 57.9101C131.99 57.9101 132.25 57.6501 132.25 57.1901C132.25 56.6001 131.72 56.3901 130.71 56.0801C129.4 55.6801 128.13 55.1601 128.14 53.4801C128.15 51.9901 129.73 51.3201 131.19 51.3201C132.76 51.3201 134.05 51.9801 134.29 53.9601H132.23C132.09 53.2701 131.73 53.0001 131.11 53.0001C130.56 53.0001 130.17 53.2101 130.17 53.6301C130.17 54.1001 130.62 54.3501 131.61 54.6501C132.98 55.0701 134.26 55.5301 134.26 57.2301C134.26 58.9301 132.75 59.6001 131.21 59.6001C129.47 59.6001 128.06 58.6901 127.76 56.7401H129.91C129.99 57.4201 130.53 57.9101 131.21 57.9101" fill="white"/>
<path d="M142.92 51.52H140.86V59.42H142.92V51.52Z" fill="white"/>
<path d="M149.82 51.52H152.51C154.46 51.52 155.67 52.06 155.67 53.57C155.67 54.65 155.08 55.13 154.35 55.33C155.1 55.51 155.89 55.96 155.89 57.16C155.89 59.02 154.5 59.4301 152.47 59.4301H149.82V51.53V51.52ZM152.2 54.63C153.2 54.63 153.65 54.55 153.65 53.87C153.65 53.19 153.19 53.17 152.39 53.17H151.88V54.63H152.2ZM152.04 57.76C153.18 57.76 153.85 57.8 153.85 56.95C153.85 56.23 153.3 56.21 152.46 56.21H151.88V57.76H152.04Z" fill="white"/>
<path d="M164.52 51.52V57.67H167.94V59.42H162.46V51.52H164.52Z" fill="white"/>
<path d="M179.58 53.27H176.24V54.62H179.34V56.31H176.24V57.67H179.61V59.42H174.18V51.52H179.58V53.27Z" fill="white"/>
<path d="M74.0301 14.2001C74.6401 13.8301 75.3701 13.6501 76.2201 13.6501C77.2101 13.6501 78.0301 13.8901 78.6901 14.3801C79.3501 14.8601 79.7501 15.5901 79.8801 16.5501H83.4101C83.3201 15.2601 82.9101 14.1701 82.2001 13.2801C81.4901 12.3901 80.6101 11.7201 79.5501 11.2701C78.5001 10.8201 77.3801 10.6001 76.2101 10.6001C74.6901 10.6001 73.3701 10.9001 72.2301 11.5101C71.0901 12.1201 70.2101 12.9901 69.6001 14.1101C68.9801 15.2401 68.6801 16.5301 68.6801 17.9901C68.6801 19.4501 68.9901 20.7701 69.6001 21.8901C70.2201 23.0101 71.1001 23.8801 72.2501 24.4901C73.4001 25.1101 74.7201 25.4101 76.2201 25.4101C77.4001 25.4101 78.5101 25.1901 79.5601 24.7601C80.6101 24.3201 81.4901 23.6601 82.2101 22.7601C82.9201 21.8601 83.3201 20.7601 83.4201 19.4701H79.8901C79.7601 20.4201 79.3601 21.1401 78.7001 21.6501C78.0401 22.1501 77.2101 22.4001 76.2301 22.4001C75.3801 22.4001 74.6501 22.2201 74.0401 21.8501C73.4301 21.4801 72.9701 20.9601 72.6601 20.2901C72.3501 19.6201 72.1901 18.8501 72.1901 18.0001C72.1901 17.1501 72.3501 16.3901 72.6601 15.7401C72.9701 15.0901 73.4301 14.5701 74.0401 14.2001" fill="white"/>
<path d="M60.9 0H69.16V3.04004H61.75V10.89H58.71V2.21002C58.71 1.47002 58.89 0.920049 59.25 0.550049C59.61 0.180049 60.16 0 60.9 0Z" fill="white"/>
<path d="M103.21 10.6001C101.71 10.6001 100.51 10.9901 99.6 11.7801C98.85 12.4301 98.29 13.2301 97.91 14.1901C97.87 14.0401 97.83 13.8901 97.79 13.7501C97.5 12.7701 97.02 12.0101 96.35 11.4501C95.69 10.8901 94.8 10.6101 93.68 10.6101C92.33 10.6101 91.24 10.9801 90.4 11.7201C89.64 12.3901 89.07 13.2401 88.71 14.2801V10.8901H85.24V25.1401H88.71V19.7101C88.71 18.3801 88.84 17.2801 89.09 16.4101C89.35 15.5401 89.75 14.8601 90.31 14.3801C90.87 13.9001 91.6 13.6501 92.52 13.6501C93.13 13.6501 93.61 13.7901 93.97 14.0601C94.33 14.3401 94.59 14.7601 94.74 15.3201C94.89 15.8901 94.97 16.6401 94.97 17.5701V25.1401H98.44V19.7101C98.44 18.3801 98.57 17.2801 98.82 16.4101C99.08 15.5401 99.48 14.8601 100.04 14.3801C100.6 13.9001 101.33 13.6501 102.24 13.6501C102.85 13.6501 103.33 13.7901 103.69 14.0601C104.05 14.3401 104.31 14.7601 104.46 15.3201C104.61 15.8901 104.69 16.6401 104.69 17.5701V25.1401H108.16V17.2901C108.16 15.1701 107.77 13.5201 106.99 12.3501C106.21 11.1801 104.95 10.6001 103.21 10.6001Z" fill="white"/>
<path d="M118.71 37.91H110.45V34.87H117.86V27.02H120.9V35.7C120.9 36.44 120.72 36.99 120.36 37.36C120 37.73 119.45 37.91 118.71 37.91Z" fill="white"/>
</g>
</svg>
