<svg width="278" height="50" viewBox="0 0 278 50" fill="none" xmlns="http://www.w3.org/2000/svg">
<mask id="mask0_2534_1262" style="mask-type:luminance" maskUnits="userSpaceOnUse" x="0" y="0" width="278" height="50">
<path d="M277.11 0H0V49.8H277.11V0Z" fill="white"/>
</mask>
<g mask="url(#mask0_2534_1262)">
<path d="M21.16 19.63C22 19.12 23.01 18.86 24.19 18.86C25.55 18.86 26.69 19.19 27.61 19.86C28.53 20.53 29.08 21.53 29.26 22.87H34.13C34 21.09 33.44 19.58 32.46 18.35C31.48 17.12 30.26 16.19 28.8 15.58C27.35 14.97 25.81 14.66 24.18 14.66C22.08 14.66 20.25 15.08 18.68 15.92C17.11 16.76 15.9 17.96 15.04 19.52C14.19 21.08 13.76 22.87 13.76 24.89C13.76 26.91 14.19 28.73 15.04 30.28C15.89 31.83 17.11 33.02 18.7 33.88C20.28 34.73 22.11 35.16 24.18 35.16C25.8 35.16 27.34 34.86 28.8 34.25C30.25 33.65 31.47 32.72 32.46 31.48C33.44 30.24 34 28.72 34.13 26.94H29.26C29.08 28.25 28.53 29.25 27.61 29.95C26.69 30.65 25.55 30.99 24.19 30.99C23.01 30.99 22 30.73 21.16 30.22C20.32 29.71 19.69 28.99 19.25 28.06C18.82 27.13 18.6 26.08 18.6 24.9C18.6 23.72 18.82 22.68 19.25 21.78C19.68 20.88 20.32 20.17 21.16 19.66" fill="black"/>
<path d="M55.83 23.47C55.83 21.58 55.45 19.99 54.69 18.69C53.93 17.39 52.85 16.4 51.47 15.7C50.08 15.01 48.44 14.66 46.56 14.66C44.8 14.66 43.24 14.97 41.88 15.58C40.52 16.2 39.44 17.07 38.64 18.21C37.84 19.35 37.39 20.71 37.28 22.28H41.92C42.02 20.97 42.46 20.01 43.24 19.39C44.02 18.77 45.07 18.47 46.4 18.47C47.97 18.47 49.12 18.81 49.84 19.49C50.56 20.17 50.95 21.25 51 22.71L44 23.42C41.46 23.68 39.63 24.31 38.52 25.31C37.41 26.31 36.85 27.64 36.85 29.32C36.85 30.79 37.35 32.12 38.34 33.33C39.33 34.53 41.14 35.14 43.76 35.14C46.38 35.14 48.27 34.6 49.6 33.51C50.78 32.54 51.61 31.29 52.1 29.78V32.11C52.1 32.95 52.33 33.6 52.79 34.06C53.25 34.52 53.9 34.75 54.74 34.75H58.71V30.58H55.84V23.47H55.83ZM50.21 28.5C49.68 29.36 48.95 30.04 48.01 30.52C47.07 31.01 45.99 31.25 44.79 31.25C43.79 31.25 43.01 31.03 42.45 30.6C41.89 30.17 41.61 29.49 41.61 28.58C41.61 27.93 41.83 27.42 42.28 27.07C42.73 26.72 43.43 26.49 44.4 26.38C44.61 26.33 44.77 26.3 44.87 26.3L51 25.55C51 26.65 50.74 27.63 50.21 28.5Z" fill="black"/>
<path d="M85.8 14.66C83.73 14.66 82.07 15.2 80.81 16.29C79.77 17.19 79 18.3 78.48 19.61C78.43 19.4 78.38 19.2 78.32 19C77.91 17.65 77.25 16.59 76.33 15.82C75.41 15.05 74.18 14.66 72.63 14.66C70.77 14.66 69.26 15.17 68.09 16.19C67.04 17.11 66.26 18.29 65.75 19.73V15.05H60.95V34.74H65.75V27.23C65.75 25.4 65.93 23.88 66.28 22.67C66.63 21.46 67.2 20.53 67.97 19.86C68.74 19.19 69.76 18.86 71.02 18.86C71.86 18.86 72.53 19.05 73.03 19.43C73.53 19.81 73.88 20.39 74.09 21.18C74.3 21.97 74.4 23 74.4 24.28V34.74H79.2V27.23C79.2 25.4 79.38 23.88 79.73 22.67C80.08 21.46 80.65 20.53 81.42 19.86C82.19 19.19 83.21 18.86 84.47 18.86C85.31 18.86 85.98 19.05 86.47 19.43C86.97 19.81 87.32 20.39 87.53 21.18C87.74 21.97 87.85 23 87.85 24.28V34.74H92.64V23.89C92.64 20.96 92.1 18.68 91.03 17.07C89.95 15.46 88.21 14.65 85.8 14.65" fill="black"/>
<path d="M114.58 15.98C113.2 15.1 111.55 14.66 109.61 14.66C107.38 14.66 105.59 15.17 104.22 16.19C103.08 17.04 102.19 18.15 101.55 19.5V15.05H96.75V42.45H101.55V30.33C102.16 31.64 103.03 32.73 104.16 33.58C105.54 34.62 107.35 35.13 109.6 35.13C111.54 35.13 113.2 34.68 114.57 33.79C115.95 32.9 116.99 31.69 117.69 30.15C118.4 28.62 118.75 26.87 118.75 24.9C118.75 22.93 118.4 21.17 117.69 19.61C116.98 18.05 115.94 16.83 114.57 15.95M113.21 28.3C112.7 29.19 111.99 29.86 111.09 30.31C110.19 30.76 109.12 30.98 107.89 30.98C106.66 30.98 105.58 30.76 104.65 30.31C103.72 29.86 102.99 29.19 102.45 28.28C101.91 27.38 101.64 26.26 101.64 24.92C101.64 23.58 101.91 22.46 102.45 21.56C102.99 20.66 103.72 19.98 104.65 19.54C105.58 19.09 106.66 18.87 107.89 18.87C109.12 18.87 110.19 19.09 111.09 19.54C111.99 19.99 112.7 20.65 113.21 21.54C113.72 22.43 113.98 23.56 113.98 24.92C113.98 26.28 113.72 27.41 113.21 28.3Z" fill="black"/>
<path d="M146.83 14.66C144.76 14.66 143.1 15.2 141.84 16.29C140.8 17.19 140.03 18.3 139.51 19.61C139.46 19.4 139.4 19.2 139.35 19C138.94 17.65 138.28 16.59 137.36 15.82C136.44 15.05 135.21 14.66 133.66 14.66C131.8 14.66 130.29 15.17 129.12 16.19C128.07 17.11 127.29 18.29 126.78 19.73V15.05H121.98V34.74H126.78V27.23C126.78 25.4 126.96 23.88 127.31 22.67C127.66 21.46 128.23 20.53 129 19.86C129.77 19.19 130.79 18.86 132.05 18.86C132.89 18.86 133.56 19.05 134.05 19.43C134.55 19.81 134.9 20.39 135.11 21.18C135.32 21.97 135.42 23 135.42 24.28V34.74H140.21V27.23C140.21 25.4 140.39 23.88 140.74 22.67C141.09 21.46 141.66 20.53 142.43 19.86C143.2 19.19 144.22 18.86 145.48 18.86C146.32 18.86 146.99 19.05 147.48 19.43C147.98 19.81 148.33 20.39 148.54 21.18C148.75 21.97 148.86 23 148.86 24.28V34.74H153.65V23.89C153.65 20.96 153.11 18.68 152.04 17.07C150.96 15.46 149.22 14.65 146.81 14.65" fill="black"/>
<path d="M166.55 17.7701C166.55 16.8501 166.31 16.1701 165.84 15.7301C165.37 15.2801 164.7 15.0601 163.84 15.0601H157.71V19.2701H162.11V30.5901H156.61V34.7601H172.1V30.5901H166.56V17.7801L166.55 17.7701Z" fill="black"/>
<path d="M187.82 14.66C185.65 14.66 183.85 15.2 182.43 16.27C181.16 17.23 180.29 18.51 179.8 20.11V15.05H175V34.74H179.8V26.92C179.8 25.14 180.06 23.64 180.59 22.44C181.11 21.23 181.84 20.34 182.77 19.75C183.7 19.16 184.82 18.87 186.13 18.87C187.73 18.87 188.87 19.28 189.57 20.09C190.26 20.9 190.61 22.27 190.61 24.18V34.75H195.44V23.51C195.44 20.68 194.77 18.5 193.44 16.97C192.1 15.44 190.23 14.67 187.82 14.67" fill="black"/>
<path d="M215.75 19.42C215.13 18.15 214.27 17.09 213.18 16.23C211.83 15.18 210.02 14.66 207.73 14.66C205.79 14.66 204.13 15.1 202.76 15.98C201.38 16.86 200.34 18.06 199.64 19.6C198.93 21.13 198.58 22.9 198.58 24.89C198.58 26.88 198.93 28.61 199.64 30.16C200.35 31.71 201.39 32.92 202.76 33.82C204.14 34.71 205.79 35.16 207.73 35.16C209.96 35.16 211.76 34.65 213.14 33.63C214.26 32.8 215.13 31.73 215.75 30.42V34.77H220.59V5.85999H215.75V19.42ZM214.91 28.22C214.37 29.14 213.63 29.83 212.69 30.28C211.75 30.74 210.68 30.97 209.51 30.97C208.34 30.97 207.2 30.73 206.29 30.26C205.38 29.79 204.67 29.1 204.17 28.2C203.67 27.3 203.42 26.19 203.42 24.88C203.42 23.57 203.67 22.43 204.17 21.54C204.67 20.65 205.38 19.98 206.29 19.53C207.21 19.08 208.28 18.86 209.51 18.86C210.74 18.86 211.75 19.09 212.69 19.55C213.63 20.01 214.37 20.68 214.91 21.57C215.45 22.46 215.72 23.56 215.72 24.87C215.72 26.18 215.45 27.29 214.91 28.21" fill="black"/>
<path d="M237.45 30.48C236.57 31.1 235.44 31.4 234.05 31.4C232.35 31.4 231.04 30.86 230.12 29.77C229.29 28.79 228.83 27.49 228.73 25.9H243.92V24.37C243.92 21.33 243.02 18.95 241.21 17.23C239.4 15.51 236.94 14.66 233.82 14.66C231.88 14.66 230.16 15.06 228.67 15.86C227.18 16.66 226.02 17.81 225.19 19.32C224.36 20.83 223.95 22.63 223.95 24.72C223.95 26.81 224.35 28.53 225.15 30.11C225.95 31.68 227.11 32.91 228.63 33.81C230.15 34.7 231.97 35.15 234.09 35.15C236.97 35.15 239.24 34.47 240.89 33.11C242.54 31.75 243.56 29.99 243.96 27.84H239.2C238.91 28.99 238.33 29.88 237.45 30.49M231.18 18.97C231.97 18.54 232.88 18.32 233.93 18.32C235.55 18.32 236.85 18.79 237.8 19.72C238.64 20.54 239.11 21.63 239.21 23H228.73C228.8 22.17 229.01 21.45 229.35 20.82C229.78 20.02 230.39 19.41 231.18 18.97Z" fill="black"/>
<path d="M250.67 15.05C249.65 15.05 248.88 15.3 248.37 15.8C247.86 16.3 247.6 17.06 247.6 18.08V34.75H252.43V19.26H262.65V15.05H250.66H250.67Z" fill="black"/>
<path d="M166.43 6.87H161.61V11.38L166.43 11.34V6.87Z" fill="black"/>
<path d="M3.03 0H14.45V4.21H4.21V15.06H0V3.07C0 2.04 0.25 1.28 0.75 0.77C1.25 0.26 2.01 0 3.03 0Z" fill="black"/>
<path d="M274.08 49.8H262.66V45.59H272.9V34.74H277.11V46.73C277.11 47.75 276.86 48.52 276.36 49.03C275.86 49.54 275.1 49.8 274.08 49.8Z" fill="black"/>
</g>
</svg>
